<svg xmlns="http://www.w3.org/2000/svg" viewBox="0 0 96 96" fill="none" role="img" aria-labelledby="title desc">
  <title id="title">HBYS MedFlow logo</title>
  <desc id="desc">A medical cross outline with a forward flow arrow.</desc>
  <path
    d="M34 12h18c5.523 0 10 4.477 10 10v12h12c5.523 0 10 4.477 10 10v18c0 5.523-4.477 10-10 10H62v12c0 5.523-4.477 10-10 10H34c-5.523 0-10-4.477-10-10V72H12c-5.523 0-10-4.477-10-10V44c0-5.523 4.477-10 10-10h12V22c0-5.523 4.477-10 10-10Z"
    stroke="url(#medflow-outline)"
    stroke-width="6.5"
    stroke-linejoin="round"
  />
  <path
    d="M28 50c11-1 18-10 20-26"
    stroke="url(#medflow-flow)"
    stroke-width="6.5"
    stroke-linecap="round"
  />
  <path
    d="M46 70c1-14 7-24 18-33c7-6 15-10 24-11"
    stroke="url(#medflow-flow)"
    stroke-width="6.5"
    stroke-linecap="round"
  />
  <path
    d="M72 21l17 12-17 12"
    stroke="url(#medflow-flow)"
    stroke-width="6.5"
    stroke-linecap="round"
    stroke-linejoin="round"
  />
  <defs>
    <linearGradient id="medflow-outline" x1="18" y1="16" x2="78" y2="84" gradientUnits="userSpaceOnUse">
      <stop stop-color="#B91C1C" />
      <stop offset="0.5" stop-color="#DC2626" />
      <stop offset="1" stop-color="#EF4444" />
    </linearGradient>
    <linearGradient id="medflow-flow" x1="33" y1="23" x2="88" y2="62" gradientUnits="userSpaceOnUse">
      <stop stop-color="#DC2626" />
      <stop offset="0.55" stop-color="#EF4444" />
      <stop offset="1" stop-color="#F87171" />
    </linearGradient>
  </defs>
</svg>
